HIERARCHY
ROOT Hips
{
  OFFSET -33.9132 29.2015 117.021
  CHANNELS 6 Xposition Yposition Zposition Zrotation Xrotation Yrotation
  JOINT LeftUpLeg
  {
    OFFSET 8.64259 1.95398 -2.38835
    CHANNELS 3 Zrotation Xrotation Yrotation
    JOINT LeftLeg
    {
      OFFSET 43.7702 0 0
      CHANNELS 3 Zrotation Xrotation Yrotation
      JOINT LeftFoot
      {
        OFFSET 40.6238 0 0
        CHANNELS 3 Zrotation Xrotation Yrotation
        JOINT LeftToeBase
        {
          OFFSET 12.7242 0 0
          CHANNELS 3 Zrotation Xrotation Yrotation
          End Site
          {
            OFFSET 0 0 0
          }
        }
      }
    }
  }
  JOINT RightUpLeg
  {
    OFFSET -8.2249 1.95398 -2.59336
    CHANNELS 3 Zrotation Xrotation Yrotation
    JOINT RightLeg
    {
      OFFSET 43.5653 0 0
      CHANNELS 3 Zrotation Xrotation Yrotation
      JOINT RightFoot
      {
        OFFSET 40.6238 0 0
        CHANNELS 3 Zrotation Xrotation Yrotation
        JOINT RightToeBase
        {
          OFFSET 12.7242 0 0
          CHANNELS 3 Zrotation Xrotation Yrotation
          End Site
          {
            OFFSET 0 0 0
          }
        }
      }
    }
  }
  JOINT Spine
  {
    OFFSET 0.165834 0.87714 6.61349
    CHANNELS 3 Zrotation Xrotation Yrotation
    JOINT Spine1
    {
      OFFSET 7.38963 1.71661e-005 0
      CHANNELS 3 Zrotation Xrotation Yrotation
      JOINT Spine2
      {
        OFFSET 11.9445 1.14441e-005 0
        CHANNELS 3 Zrotation Xrotation Yrotation
        JOINT Spine3
        {
          OFFSET 14.7254 4.19617e-005 0
          CHANNELS 3 Zrotation Xrotation Yrotation
          JOINT Spine4
          {
            OFFSET 10.9679 0 0
            CHANNELS 3 Zrotation Xrotation Yrotation
            JOINT RightShoulder
            {
              OFFSET 2.46616 -1.6653 3.69651
              CHANNELS 3 Zrotation Xrotation Yrotation
              JOINT RightArm
              {
                OFFSET 13.0012 0 0
                CHANNELS 3 Zrotation Xrotation Yrotation
                JOINT RightForeArm
                {
                  OFFSET 28.7848 1.62311e-005 0
                  CHANNELS 3 Zrotation Xrotation Yrotation
                  JOINT RightHand
                  {
                    OFFSET 26.5688 1.62095e-005 0
                    CHANNELS 3 Zrotation Xrotation Yrotation
                    End Site
                    {
                      OFFSET 0 0 0
                    }
                  }
                }
              }
            }
            JOINT LeftShoulder
            {
              OFFSET 2.38034 -1.29275 -3.7523
              CHANNELS 3 Zrotation Xrotation Yrotation
              JOINT LeftArm
              {
                OFFSET 16.3182 6.07031e-005 0
                CHANNELS 3 Zrotation Xrotation Yrotation
                JOINT LeftForeArm
                {
                  OFFSET 27.0901 0 0
                  CHANNELS 3 Zrotation Xrotation Yrotation
                  JOINT LeftHand
                  {
                    OFFSET 24.5451 1.51738e-005 0
                    CHANNELS 3 Zrotation Xrotation Yrotation
                    End Site
                    {
                      OFFSET 0 0 0
                    }
                  }
                }
              }
            }
            JOINT Neck
            {
              OFFSET 5.0226 -0.0266342 0
              CHANNELS 3 Zrotation Xrotation Yrotation
              JOINT Head
              {
                OFFSET 6.69364 2.86102e-005 0
                CHANNELS 3 Zrotation Xrotation Yrotation
                End Site
                {
                  OFFSET 0 0 0
                }
              }
            }
          }
        }
      }
    }
  }
}
MOTION
Frames:	12
Frame Time:	0.0416667
-331.825 93.0998 305.472 105.592 67.7075 76.262 -175.84 7.93182 86.7468 -33.3212 27.925 -0.745962 77.3158 10.708 -0.383494 16.5181 -8.80236 5.08332 163.13 -21.4008 89.5583 -29.4158 2.83919 11.9992 52.679 4.45322 1.79239 20.142 1.47031 7.67999 -2.36804 6.93973 -89.6683 13.0286 -4.54168 1.2193 1.36484 -4.48361 1.41837 -21.2343 -4.69769 -0.205026 -1.22162 -4.6977 -0.205028 94.7378 -29.3083 -97.4253 55.1591 -2.78963 -18.3617 175.387 16.565 -179.984 7.74386 -4.65711 -62.965 -89.4393 -54.7692 80.5025 -7.36159 -8.32298 4.30784 -11.6272 39.792 -0.0343789 16.8775 -2.37526 -16.6538 -0.899311 -0.800443 -2.40158 -7.34685 -0.497673 0.504896 
-330.983 94.8957 303.743 102.484 57.4755 78.3877 -175.955 -0.647871 85.0263 -20.317 17.5629 -1.32614 74.2531 8.99846 -1.18939 17.3135 -8.25178 4.91344 163.704 -4.70345 87.4606 -46.6914 -14.81 4.43031 63.0297 -2.02723 -2.36473 24.5707 0.577373 4.73256 -1.65127 7.56655 -89.6563 11.7581 -3.12275 1.01338 0.0904558 -3.07512 1.14994 -22.4751 -3.2828 0.0270255 -2.46243 -3.28281 0.0270197 93.0359 -28.0652 -101.271 51.6636 -1.69155 -20.98 175.391 16.4808 -179.986 -6.88572 4.57132 -69.0144 -87.9799 -52.8538 82.2545 -12.4884 -9.81867 -11.0056 -12.2088 21.087 -0.0283117 7.85049 -0.0557728 -7.51787 2.94353 0.667197 -0.856288 -5.39087 0.817531 -0.38616 
-329.772 95.6972 302.915 98.3366 50.6525 83.6221 -175.905 -3.45184 85.0932 -14.0551 9.44725 -0.721059 72.9743 8.26519 -3.40359 17.5464 -8.7406 6.00427 172.152 10.4447 86.4851 -47.6146 -7.25948 -0.538612 69.6242 -5.62142 0.954712 19.5855 4.04759 1.06427 -1.18184 7.90808 -89.7915 11.0655 -2.25586 0.632024 -0.603741 -2.22585 0.730733 -23.1545 -2.34145 -0.0755386 -3.14186 -2.34145 -0.0755379 90.9139 -28.4404 -105.513 48.3783 -0.510808 -23.2544 175.17 30.8918 179.792 -16.1681 11.9658 -85.7734 -87.6981 -48.2903 81.8682 -19.2363 -10.6297 -23.4181 -11.2017 17.5896 -0.0277114 11.2835 -0.690754 -11.0991 4.48348 1.65654 -3.64117 -3.09442 2.27688 1.2356 
-326.818 95.3593 300.761 97.0937 45.7529 86.6389 -174.888 -5.54094 86.8681 -14.0944 5.81386 -0.382404 75.6963 9.14827 -2.67749 18.1901 -8.97726 7.01934 177.779 16.8012 92.1233 -33.5945 -3.20207 -1.93619 67.4075 -4.23416 2.80373 21.3202 4.31235 -2.4703 -0.700548 8.02226 -89.9956 10.8307 -1.3929 0.138888 -0.839472 -1.38543 0.200058 -23.3805 -1.37023 -0.286239 -3.36781 -1.37023 -0.286242 90.7204 -28.9942 -105.699 51.5917 3.96112 -5.98001 -10.4752 -66.0028 -8.6522 -38.7525 20.5899 -42.8384 -88.5286 -46.8648 80.3164 -20.2755 -8.50503 -30.968 -11.0514 27.1796 -0.0204934 10.8823 -1.81623 -19.0835 3.96151 1.72141 -6.04791 -1.09755 2.77166 2.17752 
-322.518 94.1313 297.261 95.4846 43.1423 90.0132 -173.459 -7.1813 89.0892 -16.4308 4.00097 -0.206297 80.7898 10.4137 -3.56697 20.1164 -9.20375 9.42658 179.405 16.9062 95.5066 -9.67624 -8.84621 -0.0696536 60.444 -2.26979 -3.35166 25.9959 -0.0374718 4.837 -0.330834 8.04694 -90.2384 10.7786 -0.768716 -0.402865 -0.892154 -0.785723 -0.368639 -23.4281 -0.612098 -0.615273 -3.41542 -0.612101 -0.615273 91.2835 -29.4145 -104.411 51.2005 5.58576 -1.03116 -4.90771 -35.7614 -5.23725 -26.7869 4.54139 -24.5691 -88.5015 -44.8453 79.9396 -23.0879 -8.02561 -38.5438 -10.2774 32.8853 -0.0225439 12.3655 -2.29396 -20.8387 5.03238 1.17066 -7.91106 -1.47328 2.61951 2.01619 
-317.032 92.3231 292.439 94.4696 42.5893 91.8473 -171.524 -12.1108 91.3462 -15.0543 3.39335 -0.656312 85.2692 13.3359 -4.57881 21.1198 -8.10932 8.54878 -179.808 21.7056 97.9694 -6.33414 -6.8425 0.926402 64.9785 -3.07034 -1.01805 25.7112 0.18228 4.45428 -0.273458 7.99063 -90.3961 10.8904 -0.727531 -0.718786 -0.78056 -0.75847 -0.686072 -23.315 -0.47788 -0.904198 -3.30234 -0.477888 -0.904203 90.5603 -30.657 -105.408 49.0664 7.10973 1.3472 -4.95468 -36.5623 -5.26055 -19.7588 2.83344 -21.7718 -88.7434 -45.1786 79.6308 -22.5521 -7.63278 -41.8294 -9.94116 37.4987 -0.0250998 12.7609 -2.31604 -20.4944 4.78146 1.47672 -8.23769 -0.770876 2.9689 1.45566 
-310.728 90.6504 286.709 95.2519 43.0105 92.1243 -169.416 -18.8826 93.705 -13.1695 3.78211 -0.735801 86.6593 15.1561 -4.89729 24.5274 -7.60994 11.5348 -179.499 23.7739 99.7752 -12.8196 -7.66877 1.09535 61.9446 -0.926154 -1.91671 25.6819 0.519669 3.28956 -0.296172 7.97878 -90.6115 10.9094 -0.872422 -1.13498 -0.761694 -0.92153 -1.09549 -23.2938 -0.491027 -1.34467 -3.28112 -0.491011 -1.34467 90.45 -31.0937 -105.475 48.3034 7.92234 3.27659 -4.96997 -36.8198 -5.26742 -16.6527 1.68848 -17.4479 -89.7465 -46.0787 78.2476 -22.345 -8.41081 -41.539 -9.55357 41.7733 -0.0270333 10.5593 -1.88346 -20.6809 3.66131 1.6013 -7.09634 0.123438 2.81204 0.993856 
-304.021 90.8185 280.168 96.5632 45.9379 92.2632 -167.319 -21.1754 97.3231 -17.9068 8.67254 0.323101 78.739 12.5069 -0.34146 33.2717 -3.1066 13.1834 179.41 24.783 100.547 -24.9305 -9.18055 1.34511 59.3959 1.66702 -0.785394 20.1457 3.20706 2.46624 -0.562374 8.02544 -90.9264 10.8109 -1.54743 -1.69822 -0.860169 -1.62067 -1.62849 -23.3899 -0.965628 -2.08465 -3.37723 -0.965636 -2.08465 91.1374 -30.7342 -104.245 47.4796 8.71598 5.18917 -5.08482 -38.7092 -5.32858 -14.5467 1.55233 -17.9377 -89.1111 -45.2923 79.0696 -23.814 -7.39183 -37.684 -9.60861 45.4314 -0.0283991 8.7407 -1.14828 -17.7399 6.5853 1.2605 -5.74792 -3.02801 2.35972 1.74023 
-298.211 91.7484 274.023 99.1144 47.379 89.0687 -169.004 -14.1229 97.1503 -37.603 15.5089 1.91586 63.6778 2.8873 1.23831 28.2336 -3.27023 6.93832 177.655 21.0288 99.3891 -32.315 -9.63416 1.59631 63.9276 -1.6249 -1.45222 21.3864 2.48703 2.9572 -0.635649 8.09191 -90.8867 10.6759 -1.67445 -1.61008 -0.994876 -1.74367 -1.53483 -23.5265 -1.11326 -2.03876 -3.51384 -1.11324 -2.03877 90.9958 -29.959 -104.794 47.2574 8.90202 5.62932 -5.04145 -38.0073 -5.30536 -13.1176 1.17876 -16.0726 -89.1974 -45.6056 79.0031 -24.6345 -8.21145 -32.0718 -9.86905 45.0534 -0.0275648 6.87214 -0.653343 -16.8267 5.83183 1.2418 -4.19826 -2.42577 2.01966 1.37975 
-292.78 93.0555 269.171 99.9101 47.5355 89.0321 -169.307 -0.00638552 99.4869 -57.0439 17.1056 2.20618 53.6242 -4.07917 -1.29379 7.85415 -6.50445 -5.88043 177.648 14.5865 100.263 -30.8777 -9.70767 1.81633 67.1712 -3.93867 -2.27308 22.9034 1.85566 2.83508 -0.3013 8.15787 -90.8938 10.5477 -1.01069 -1.68642 -1.12383 -1.08391 -1.64032 -23.6512 -0.457242 -1.91214 -3.63853 -0.457218 -1.91213 90.5492 -29.7977 -105.744 47.2333 8.25092 3.18119 -5.02854 -37.7952 -5.29833 -15.3195 1.4926 -16.6486 -88.4481 -45.8989 80.2437 -24.4156 -10.1485 -25.2668 -9.66895 41.7395 -0.0255261 7.81084 -0.672823 -15.3189 5.46669 -0.0537811 -4.02788 -2.93617 0.696393 0.870749 
-288.198 94.4549 264.439 99.2277 48.8486 87.4039 -171.256 12.8672 95.3858 -63.3107 11.3717 1.82976 63.2757 2.48233 1.045 10.2676 -11.1321 3.13635 177.098 8.60533 98.3506 -27.3733 -9.23619 1.28542 69.6696 -5.18998 -1.80878 23.3568 1.8367 2.24181 0.00865561 8.1197 -90.6313 10.6322 -0.27318 -1.22917 -1.0393 -0.327022 -1.21596 -23.5697 0.10883 -1.25445 -3.55708 0.10883 -1.25445 90.5784 -28.9851 -105.985 47.6713 6.9527 -0.960108 -4.98911 -37.1411 -5.27781 -25.755 2.29278 -15.4038 -88.4072 -46.7384 80.478 -22.3903 -10.8054 -17.0554 -9.85522 37.6486 -0.022435 8.35936 -0.791276 -14.8812 3.16982 -1.63486 -3.62907 -2.04964 -1.00331 -0.0705214 
-283.575 95.2318 259.458 98.4606 48.0234 85.0846 -172.636 21.1459 90.6333 -54.3659 5.5325 0.235245 66.4961 4.76983 0.702255 12.3868 -12.1324 6.49138 176.572 2.9845 95.6651 -25.0008 -10.7213 -0.188991 72.5959 -6.46844 -1.52033 23.6166 1.98073 1.37866 0.443747 8.17709 -90.2233 10.5231 0.781394 -0.513599 -1.14774 0.758042 -0.547507 -23.6846 0.899639 -0.255007 -3.67192 0.899634 -0.255013 91.0549 -27.8566 -105.444 45.3662 6.3201 -6.65402 -5.1426 -39.6267 -5.36011 -17.7955 2.17663 -20.2514 -87.8111 -46.0671 81.279 -20.6019 -10.2032 -8.58577 -10.367 32.3152 -0.00884243 8.4266 -1.1951 -17.6929 1.74013 -2.84384 -2.8541 -1.52707 -2.38031 -1.38546 
